<svg width="31" height="24" viewBox="0 0 31 24" fill="none" xmlns="http://www.w3.org/2000/svg">
<path d="M30.1389 8.64762e-08C30.0282 -4.92902e-05 29.9186 0.0210468 29.816 0.0621429L20.6667 3.42857L11.4097 0.175714C10.7113 -0.0554072 9.95695 -0.0580353 9.25695 0.168214L1.08285 3C0.763657 3.12703 0.489959 3.34624 0.29698 3.62941C0.104001 3.91258 0.000571407 4.24675 1.28263e-06 4.58893V23.1429C-0.000242281 23.2833 0.0342062 23.4217 0.100315 23.5458C0.166425 23.67 0.262168 23.776 0.37912 23.8546C0.496072 23.9333 0.630648 23.9821 0.771005 23.9968C0.911361 24.0115 1.0532 23.9916 1.18403 23.9389L10.3333 20.5714L19.5903 23.8237C20.2894 24.0559 21.0449 24.0587 21.7457 23.8318L29.9172 21.0027C30.2368 20.8755 30.5108 20.6559 30.7038 20.3722C30.8968 20.0885 31 19.7537 31 19.4111V0.857143C31 0.629815 30.9093 0.411797 30.7478 0.251051C30.5863 0.0903059 30.3673 8.64762e-08 30.1389 8.64762e-08ZM12.0556 3.12964L18.9444 5.55054V20.872L12.0556 18.4495V3.12964ZM2.58333 20.6812V5.19911L9.47222 2.81464V18.1468L9.43778 18.1591L2.58333 20.6812ZM28.4167 18.7993L21.5278 21.1848V5.85321L21.5622 5.84036L28.4167 3.32143V18.7993Z" fill="#4e4e4e"/>
</svg>
